<svg xmlns:dc="http://purl.org/dc/elements/1.1/" xmlns:cc="http://creativecommons.org/ns#" xmlns:rdf="http://www.w3.org/1999/02/22-rdf-syntax-ns#" xmlns:svg="http://www.w3.org/2000/svg" xmlns="http://www.w3.org/2000/svg" xmlns:sodipodi="http://sodipodi.sourceforge.net/DTD/sodipodi-0.dtd" xmlns:inkscape="http://www.inkscape.org/namespaces/inkscape" viewBox="0 0 32 40.00000125" version="1.1" x="0px" y="0px"><g transform="translate(0,-1020.3622)"><path style="color:rgba(118,157,24, 0.9);font-style:normal;font-variant:normal;font-weight:normal;font-stretch:normal;font-size:medium;line-height:normal;font-family:sans-serif;text-indent:0;text-align:start;text-decoration:none;text-decoration-line:none;text-decoration-style:solid;text-decoration-color:rgba(118,157,24, 0.9);letter-spacing:normal;word-spacing:normal;text-transform:none;direction:ltr;writing-mode:lr-tb;baseline-shift:baseline;text-anchor:start;white-space:normal;clip-rule:nonzero;display:inline;overflow:visible;visibility:visible;opacity:1;isolation:auto;mix-blend-mode:normal;color-interpolation:sRGB;color-interpolation-filters:linearRGB;solid-color:rgba(118,157,24, 0.9);solid-opacity:1;fill:rgba(118,157,24, 0.9);fill-opacity:1;fill-rule:evenodd;stroke:none;stroke-width:1.5;stroke-linecap:butt;stroke-linejoin:miter;stroke-miterlimit:4;stroke-dasharray:none;stroke-dashoffset:0;stroke-opacity:1;color-rendering:auto;image-rendering:auto;shape-rendering:auto;text-rendering:auto;enable-background:accumulate" d="m 3.999997,1022.3622 c -1.23376,0 -2.25,1.0163 -2.25,2.25 l 0,4 1.5,0 0,-4 c 0,-0.4231 0.3269,-0.75 0.75,-0.75 l 4,0 0,-1.5 z"/><path style="color:rgba(118,157,24, 0.9);font-style:normal;font-variant:normal;font-weight:normal;font-stretch:normal;font-size:medium;line-height:normal;font-family:sans-serif;text-indent:0;text-align:start;text-decoration:none;text-decoration-line:none;text-decoration-style:solid;text-decoration-color:rgba(118,157,24, 0.9);letter-spacing:normal;word-spacing:normal;text-transform:none;direction:ltr;writing-mode:lr-tb;baseline-shift:baseline;text-anchor:start;white-space:normal;clip-rule:nonzero;display:inline;overflow:visible;visibility:visible;opacity:1;isolation:auto;mix-blend-mode:normal;color-interpolation:sRGB;color-interpolation-filters:linearRGB;solid-color:rgba(118,157,24, 0.9);solid-opacity:1;fill:rgba(118,157,24, 0.9);fill-opacity:1;fill-rule:evenodd;stroke:none;stroke-width:1.5;stroke-linecap:butt;stroke-linejoin:miter;stroke-miterlimit:4;stroke-dasharray:none;stroke-dashoffset:0;stroke-opacity:1;color-rendering:auto;image-rendering:auto;shape-rendering:auto;text-rendering:auto;enable-background:accumulate" d="m 24.000002,1022.3622 0,1.5 4,0 c 0.4231,0 0.75,0.3269 0.75,0.75 l 0,4 1.5,0 0,-4 c 0,-1.2337 -1.01625,-2.25 -2.25,-2.25 z"/><path style="color:rgba(118,157,24, 0.9);font-style:normal;font-variant:normal;font-weight:normal;font-stretch:normal;font-size:medium;line-height:normal;font-family:sans-serif;text-indent:0;text-align:start;text-decoration:none;text-decoration-line:none;text-decoration-style:solid;text-decoration-color:rgba(118,157,24, 0.9);letter-spacing:normal;word-spacing:normal;text-transform:none;direction:ltr;writing-mode:lr-tb;baseline-shift:baseline;text-anchor:start;white-space:normal;clip-rule:nonzero;display:inline;overflow:visible;visibility:visible;opacity:1;isolation:auto;mix-blend-mode:normal;color-interpolation:sRGB;color-interpolation-filters:linearRGB;solid-color:rgba(118,157,24, 0.9);solid-opacity:1;fill:rgba(118,157,24, 0.9);fill-opacity:1;fill-rule:evenodd;stroke:none;stroke-width:1.5;stroke-linecap:butt;stroke-linejoin:miter;stroke-miterlimit:4;stroke-dasharray:none;stroke-dashoffset:0;stroke-opacity:1;color-rendering:auto;image-rendering:auto;shape-rendering:auto;text-rendering:auto;enable-background:accumulate" d="m 1.749997,1044.1122 0,4 c 0,1.2338 1.01624,2.25 2.25,2.25 l 4,0 0,-1.5 -4,0 c -0.4231,0 -0.75,-0.3269 -0.75,-0.75 l 0,-4 z"/><path style="color:rgba(118,157,24, 0.9);font-style:normal;font-variant:normal;font-weight:normal;font-stretch:normal;font-size:medium;line-height:normal;font-family:sans-serif;text-indent:0;text-align:start;text-decoration:none;text-decoration-line:none;text-decoration-style:solid;text-decoration-color:rgba(118,157,24, 0.9);letter-spacing:normal;word-spacing:normal;text-transform:none;direction:ltr;writing-mode:lr-tb;baseline-shift:baseline;text-anchor:start;white-space:normal;clip-rule:nonzero;display:inline;overflow:visible;visibility:visible;opacity:1;isolation:auto;mix-blend-mode:normal;color-interpolation:sRGB;color-interpolation-filters:linearRGB;solid-color:rgba(118,157,24, 0.9);solid-opacity:1;fill:rgba(118,157,24, 0.9);fill-opacity:1;fill-rule:evenodd;stroke:none;stroke-width:1.5;stroke-linecap:butt;stroke-linejoin:miter;stroke-miterlimit:4;stroke-dasharray:none;stroke-dashoffset:0;stroke-opacity:1;color-rendering:auto;image-rendering:auto;shape-rendering:auto;text-rendering:auto;enable-background:accumulate" d="m 28.750002,1044.1122 0,4 c 0,0.4231 -0.3269,0.75 -0.75,0.75 l -4,0 0,1.5 4,0 c 1.23375,0 2.25,-1.0162 2.25,-2.25 l 0,-4 z"/><path style="color:rgba(118,157,24, 0.9);font-style:normal;font-variant:normal;font-weight:normal;font-stretch:normal;font-size:medium;line-height:normal;font-family:sans-serif;text-indent:0;text-align:start;text-decoration:none;text-decoration-line:none;text-decoration-style:solid;text-decoration-color:rgba(118,157,24, 0.9);letter-spacing:normal;word-spacing:normal;text-transform:none;direction:ltr;writing-mode:lr-tb;baseline-shift:baseline;text-anchor:start;white-space:normal;clip-rule:nonzero;display:inline;overflow:visible;visibility:visible;opacity:1;isolation:auto;mix-blend-mode:normal;color-interpolation:sRGB;color-interpolation-filters:linearRGB;solid-color:rgba(118,157,24, 0.9);solid-opacity:1;fill:rgba(118,157,24, 0.9);fill-opacity:1;fill-rule:evenodd;stroke:none;stroke-width:1px;stroke-linecap:butt;stroke-linejoin:miter;stroke-miterlimit:4;stroke-dasharray:none;stroke-dashoffset:0;stroke-opacity:1;color-rendering:auto;image-rendering:auto;shape-rendering:auto;text-rendering:auto;enable-background:accumulate" d="m 15.999992,1031.113 c -5.250007,0 -10.5,5.25 -10.5,5.25 0,0 0.441168,0.4193 1.136719,0.9981 l -2.636719,0 0,1 3.908203,0 5.222656,0 5.740231,0 5.22071,0 3.9082,0 0,-1 -2.63672,0 c 0.69555,-0.5788 1.13672,-0.9981 1.13672,-0.9981 0,0 -5.24999,-5.25 -10.5,-5.25 z m 0,1.75 a 3.4999998,3.4999998 0 0 1 3.5,3.5 3.4999998,3.4999998 0 0 1 -0.14844,0.9981 l -1.63086,0 c 0.12501,-0.2135 0.22492,-0.4433 0.26368,-0.6973 a 0.50005,0.50005 0 1 0 -0.98829,-0.1504 c -0.0631,0.4135 -0.371988,0.7399 -0.781246,0.8262 -0.409257,0.086 -0.826001,-0.087 -1.050782,-0.4395 -0.224781,-0.3527 -0.206227,-0.8041 0.04492,-1.1386 0.251151,-0.3345 0.678643,-0.4768 1.080078,-0.3594 a 0.50005,0.50005 0 1 0 0.28125,-0.959 c -0.798124,-0.2336 -1.662777,0.054 -2.162109,0.7188 -0.482339,0.6423 -0.521095,1.5086 -0.121094,2.1992 l -1.638671,0 a 3.4999998,3.4999998 0 0 1 -0.148438,-0.9981 3.4999998,3.4999998 0 0 1 3.5,-3.5 z"/><path d="m 9.396476,1039.3611 c 1.887398,1.1744 4.232546,2.2519 6.603516,2.2519 2.37097,0 4.71612,-1.0775 6.60352,-2.2519 l -4.80664,0 a 3.4999998,3.4999998 0 0 1 -1.79688,0.5019 3.4999998,3.4999998 0 0 1 -1.796875,-0.5019 z" style="opacity:1;fill:rgba(118,157,24, 0.9);fill-opacity:1;stroke:none;stroke-width:0.99999988;stroke-linecap:round;stroke-linejoin:round;stroke-miterlimit:4;stroke-dasharray:none;stroke-opacity:1"/></g><text x="0" y="47.000001" fill="rgba(118,157,24, 0.9)" font-size="5px" font-weight="bold" font-family="'Helvetica Neue', Helvetica, Arial-Unicode, Arial, Sans-serif">Created by anbileru adaleru</text><text x="0" y="52.000001" fill="rgba(118,157,24, 0.9)" font-size="5px" font-weight="bold" font-family="'Helvetica Neue', Helvetica, Arial-Unicode, Arial, Sans-serif">from the Noun Project</text></svg>